<svg width="381" height="51" viewBox="0 0 381 51" fill="none" xmlns="http://www.w3.org/2000/svg">
<g filter="url(#filter0_d_26_63)">
<mask id="path-1-outside-1_26_63" maskUnits="userSpaceOnUse" x="4" y="0" width="373" height="43" fill="black">
<rect fill="white" x="4" width="373" height="43"/>
<path d="M25.7592 29.6751H14.1466L11.9313 35.0121H6L17.148 10.106H22.865L34.0487 35.0121H27.9745L25.7592 29.6751ZM23.9369 25.2987L19.9708 15.7633L16.0046 25.2987H23.9369Z"/>
<path d="M48.192 10.106C50.4073 10.106 52.3248 10.4737 53.9446 11.209C55.5883 11.9443 56.8508 12.988 57.7321 14.3401C58.6135 15.6921 59.0542 17.2932 59.0542 19.1434C59.0542 20.9698 58.6135 22.5709 57.7321 23.9467C56.8508 25.2987 55.5883 26.3424 53.9446 27.0777C52.3248 27.7893 50.4073 28.1451 48.192 28.1451H43.1539V35.0121H37.3655V10.106H48.192ZM47.8704 23.4486C49.6093 23.4486 50.9313 23.0809 51.8365 22.3456C52.7417 21.5865 53.1943 20.5191 53.1943 19.1434C53.1943 17.7439 52.7417 16.6765 51.8365 15.9412C50.9313 15.1821 49.6093 14.8026 47.8704 14.8026H43.1539V23.4486H47.8704Z"/>
<path d="M66.8164 10.106L71.9974 17.649L77.1783 10.106H83.9672L75.6419 22.0254L84.6461 35.0121H77.8215L71.9974 26.7575L66.2447 35.0121H59.563L68.4957 22.2744L60.1347 10.106H66.8164Z"/>
<path d="M87.298 10.106H93.0507V26.3305L104.985 10.106H110.416V35.0121H104.699V18.8231L92.7648 35.0121H87.298V10.106Z"/>
<path d="M135.759 14.8026H127.756V35.0121H122.039V14.8026H114.071V10.106H135.759V14.8026Z"/>
<path d="M158.76 30.3867V35.0121H139.394V10.106H158.295V14.7314H145.146V20.1396H156.759V24.6227H145.146V30.3867H158.76Z"/>
<path d="M173.118 24.9785H169.117V35.0121H163.364V10.106H169.117V20.1752H173.261L179.836 10.106H185.946L177.763 22.1321L186.196 35.0121H179.621L173.118 24.9785Z"/>
<path d="M207.744 14.8026H199.741V35.0121H194.024V14.8026H186.056V10.106H207.744V14.8026Z"/>
<path d="M232.879 10.106L222.231 29.8174C221.207 31.715 219.968 33.1501 218.515 34.1226C217.086 35.0951 215.526 35.5814 213.835 35.5814C212.524 35.5814 211.167 35.2967 209.761 34.7274L211.155 30.3511C212.155 30.6594 212.989 30.8136 213.656 30.8136C214.371 30.8136 215.014 30.6476 215.585 30.3155C216.157 29.9597 216.681 29.4141 217.158 28.6788L217.372 28.3942L207.51 10.106H213.692L220.338 23.4841L227.198 10.106H232.879Z"/>
<path d="M246.456 10.106C248.672 10.106 250.589 10.4737 252.209 11.209C253.853 11.9443 255.115 12.988 255.996 14.3401C256.878 15.6921 257.318 17.2932 257.318 19.1434C257.318 20.9698 256.878 22.5709 255.996 23.9467C255.115 25.2987 253.853 26.3424 252.209 27.0777C250.589 27.7893 248.672 28.1451 246.456 28.1451H241.418V35.0121H235.63V10.106H246.456ZM246.135 23.4486C247.874 23.4486 249.196 23.0809 250.101 22.3456C251.006 21.5865 251.459 20.5191 251.459 19.1434C251.459 17.7439 251.006 16.6765 250.101 15.9412C249.196 15.1821 247.874 14.8026 246.135 14.8026H241.418V23.4486H246.135Z"/>
<path d="M284.076 10.106V35.0121H278.288V24.8006H266.925V35.0121H261.137V10.106H266.925V19.9261H278.288V10.106H284.076Z"/>
<path d="M302.455 18.2894C305.504 18.2894 307.839 18.9655 309.459 20.3175C311.102 21.6695 311.924 23.6739 311.924 26.3305C311.924 29.1532 311.019 31.3117 309.209 32.8061C307.422 34.2768 304.897 35.0121 301.634 35.0121H290.343V10.106H296.095V18.2894H302.455ZM301.312 30.7425C302.813 30.7425 303.98 30.3748 304.814 29.6395C305.671 28.9042 306.1 27.8368 306.1 26.4373C306.1 23.8518 304.504 22.5591 301.312 22.5591H296.095V30.7425H301.312ZM315.104 10.106H320.857V35.0121H315.104V10.106Z"/>
<path d="M327.085 10.106H332.838V26.3305L344.772 10.106H350.203V35.0121H344.486V18.8231L332.552 35.0121H327.085V10.106ZM338.626 8.50492C334.053 8.50492 331.742 6.69034 331.695 3.06117H335.661C335.708 4.79274 336.697 5.65852 338.626 5.65852C339.579 5.65852 340.306 5.44504 340.806 5.01808C341.306 4.5674 341.568 3.9151 341.592 3.06117H345.558C345.534 4.84018 344.951 6.19222 343.807 7.1173C342.664 8.04238 340.937 8.50492 338.626 8.50492Z"/>
<path d="M365.881 42V34.4855H367.096V40.591H369.954V37.4884C369.954 36.3024 370.202 35.4011 370.698 34.7844C371.193 34.1676 371.908 33.8593 372.841 33.8593C373.823 33.8593 374.576 34.1961 375.1 34.8698C375.624 35.5339 375.886 36.4875 375.886 37.7304V42H365.881ZM374.757 37.7873C374.757 36.9713 374.599 36.3499 374.285 35.9229C373.97 35.496 373.508 35.2825 372.899 35.2825C371.688 35.2825 371.083 36.1174 371.083 37.7873V40.591H374.757V37.7873Z"/>
<path d="M365.881 23.6995H375.886V25.0942H367.124V29.5062L370.054 29.6058C371.436 29.6532 372.556 29.7671 373.413 29.9474C374.271 30.1181 374.919 30.3933 375.357 30.7728C375.786 31.1523 376 31.6647 376 32.3099C376 32.604 375.962 32.9029 375.886 33.2065L374.614 33.1069C374.652 32.9551 374.671 32.8033 374.671 32.6514C374.671 32.2435 374.509 31.9161 374.185 31.6694C373.851 31.4227 373.356 31.2377 372.698 31.1144C372.041 30.991 371.174 30.9104 370.097 30.8724L365.881 30.7159V23.6995Z"/>
<path d="M376 16.1133C376 17.119 375.781 18.0251 375.343 18.8316C374.895 19.6381 374.28 20.2738 373.499 20.7387C372.718 21.1941 371.846 21.4218 370.883 21.4218C369.921 21.4218 369.049 21.1941 368.268 20.7387C367.487 20.2738 366.877 19.6381 366.438 18.8316C365.991 18.0251 365.767 17.119 365.767 16.1133C365.767 15.117 365.991 14.2157 366.438 13.4092C366.877 12.6027 367.487 11.9718 368.268 11.5163C369.04 11.0609 369.911 10.8332 370.883 10.8332C371.855 10.8332 372.732 11.0609 373.513 11.5163C374.285 11.9718 374.895 12.6027 375.343 13.4092C375.781 14.2157 376 15.117 376 16.1133ZM374.728 16.1133C374.728 15.3827 374.561 14.728 374.228 14.1493C373.894 13.561 373.437 13.1008 372.856 12.7688C372.265 12.4272 371.607 12.2564 370.883 12.2564C370.159 12.2564 369.506 12.4272 368.925 12.7688C368.335 13.1008 367.872 13.561 367.539 14.1493C367.205 14.728 367.039 15.3827 367.039 16.1133C367.039 16.8439 367.205 17.508 367.539 18.1058C367.872 18.694 368.335 19.1589 368.925 19.5005C369.506 19.8326 370.159 19.9986 370.883 19.9986C371.607 19.9986 372.265 19.8326 372.856 19.5005C373.437 19.1589 373.894 18.694 374.228 18.1058C374.561 17.508 374.728 16.8439 374.728 16.1133Z"/>
<path d="M367.124 2.01423V7.13776L375.886 7.12353V8.5325H365.881V2L367.124 2.01423Z"/>
</mask>
<path d="M25.7592 29.6751H14.1466L11.9313 35.0121H6L17.148 10.106H22.865L34.0487 35.0121H27.9745L25.7592 29.6751ZM23.9369 25.2987L19.9708 15.7633L16.0046 25.2987H23.9369Z" fill="black"/>
<path d="M48.192 10.106C50.4073 10.106 52.3248 10.4737 53.9446 11.209C55.5883 11.9443 56.8508 12.988 57.7321 14.3401C58.6135 15.6921 59.0542 17.2932 59.0542 19.1434C59.0542 20.9698 58.6135 22.5709 57.7321 23.9467C56.8508 25.2987 55.5883 26.3424 53.9446 27.0777C52.3248 27.7893 50.4073 28.1451 48.192 28.1451H43.1539V35.0121H37.3655V10.106H48.192ZM47.8704 23.4486C49.6093 23.4486 50.9313 23.0809 51.8365 22.3456C52.7417 21.5865 53.1943 20.5191 53.1943 19.1434C53.1943 17.7439 52.7417 16.6765 51.8365 15.9412C50.9313 15.1821 49.6093 14.8026 47.8704 14.8026H43.1539V23.4486H47.8704Z" fill="black"/>
<path d="M66.8164 10.106L71.9974 17.649L77.1783 10.106H83.9672L75.6419 22.0254L84.6461 35.0121H77.8215L71.9974 26.7575L66.2447 35.0121H59.563L68.4957 22.2744L60.1347 10.106H66.8164Z" fill="black"/>
<path d="M87.298 10.106H93.0507V26.3305L104.985 10.106H110.416V35.0121H104.699V18.8231L92.7648 35.0121H87.298V10.106Z" fill="black"/>
<path d="M135.759 14.8026H127.756V35.0121H122.039V14.8026H114.071V10.106H135.759V14.8026Z" fill="black"/>
<path d="M158.76 30.3867V35.0121H139.394V10.106H158.295V14.7314H145.146V20.1396H156.759V24.6227H145.146V30.3867H158.76Z" fill="black"/>
<path d="M173.118 24.9785H169.117V35.0121H163.364V10.106H169.117V20.1752H173.261L179.836 10.106H185.946L177.763 22.1321L186.196 35.0121H179.621L173.118 24.9785Z" fill="black"/>
<path d="M207.744 14.8026H199.741V35.0121H194.024V14.8026H186.056V10.106H207.744V14.8026Z" fill="black"/>
<path d="M232.879 10.106L222.231 29.8174C221.207 31.715 219.968 33.1501 218.515 34.1226C217.086 35.0951 215.526 35.5814 213.835 35.5814C212.524 35.5814 211.167 35.2967 209.761 34.7274L211.155 30.3511C212.155 30.6594 212.989 30.8136 213.656 30.8136C214.371 30.8136 215.014 30.6476 215.585 30.3155C216.157 29.9597 216.681 29.4141 217.158 28.6788L217.372 28.3942L207.51 10.106H213.692L220.338 23.4841L227.198 10.106H232.879Z" fill="black"/>
<path d="M246.456 10.106C248.672 10.106 250.589 10.4737 252.209 11.209C253.853 11.9443 255.115 12.988 255.996 14.3401C256.878 15.6921 257.318 17.2932 257.318 19.1434C257.318 20.9698 256.878 22.5709 255.996 23.9467C255.115 25.2987 253.853 26.3424 252.209 27.0777C250.589 27.7893 248.672 28.1451 246.456 28.1451H241.418V35.0121H235.63V10.106H246.456ZM246.135 23.4486C247.874 23.4486 249.196 23.0809 250.101 22.3456C251.006 21.5865 251.459 20.5191 251.459 19.1434C251.459 17.7439 251.006 16.6765 250.101 15.9412C249.196 15.1821 247.874 14.8026 246.135 14.8026H241.418V23.4486H246.135Z" fill="black"/>
<path d="M284.076 10.106V35.0121H278.288V24.8006H266.925V35.0121H261.137V10.106H266.925V19.9261H278.288V10.106H284.076Z" fill="black"/>
<path d="M302.455 18.2894C305.504 18.2894 307.839 18.9655 309.459 20.3175C311.102 21.6695 311.924 23.6739 311.924 26.3305C311.924 29.1532 311.019 31.3117 309.209 32.8061C307.422 34.2768 304.897 35.0121 301.634 35.0121H290.343V10.106H296.095V18.2894H302.455ZM301.312 30.7425C302.813 30.7425 303.98 30.3748 304.814 29.6395C305.671 28.9042 306.1 27.8368 306.1 26.4373C306.1 23.8518 304.504 22.5591 301.312 22.5591H296.095V30.7425H301.312ZM315.104 10.106H320.857V35.0121H315.104V10.106Z" fill="black"/>
<path d="M327.085 10.106H332.838V26.3305L344.772 10.106H350.203V35.0121H344.486V18.8231L332.552 35.0121H327.085V10.106ZM338.626 8.50492C334.053 8.50492 331.742 6.69034 331.695 3.06117H335.661C335.708 4.79274 336.697 5.65852 338.626 5.65852C339.579 5.65852 340.306 5.44504 340.806 5.01808C341.306 4.5674 341.568 3.9151 341.592 3.06117H345.558C345.534 4.84018 344.951 6.19222 343.807 7.1173C342.664 8.04238 340.937 8.50492 338.626 8.50492Z" fill="black"/>
<path d="M365.881 42V34.4855H367.096V40.591H369.954V37.4884C369.954 36.3024 370.202 35.4011 370.698 34.7844C371.193 34.1676 371.908 33.8593 372.841 33.8593C373.823 33.8593 374.576 34.1961 375.1 34.8698C375.624 35.5339 375.886 36.4875 375.886 37.7304V42H365.881ZM374.757 37.7873C374.757 36.9713 374.599 36.3499 374.285 35.9229C373.97 35.496 373.508 35.2825 372.899 35.2825C371.688 35.2825 371.083 36.1174 371.083 37.7873V40.591H374.757V37.7873Z" fill="black"/>
<path d="M365.881 23.6995H375.886V25.0942H367.124V29.5062L370.054 29.6058C371.436 29.6532 372.556 29.7671 373.413 29.9474C374.271 30.1181 374.919 30.3933 375.357 30.7728C375.786 31.1523 376 31.6647 376 32.3099C376 32.604 375.962 32.9029 375.886 33.2065L374.614 33.1069C374.652 32.9551 374.671 32.8033 374.671 32.6514C374.671 32.2435 374.509 31.9161 374.185 31.6694C373.851 31.4227 373.356 31.2377 372.698 31.1144C372.041 30.991 371.174 30.9104 370.097 30.8724L365.881 30.7159V23.6995Z" fill="black"/>
<path d="M376 16.1133C376 17.119 375.781 18.0251 375.343 18.8316C374.895 19.6381 374.28 20.2738 373.499 20.7387C372.718 21.1941 371.846 21.4218 370.883 21.4218C369.921 21.4218 369.049 21.1941 368.268 20.7387C367.487 20.2738 366.877 19.6381 366.438 18.8316C365.991 18.0251 365.767 17.119 365.767 16.1133C365.767 15.117 365.991 14.2157 366.438 13.4092C366.877 12.6027 367.487 11.9718 368.268 11.5163C369.04 11.0609 369.911 10.8332 370.883 10.8332C371.855 10.8332 372.732 11.0609 373.513 11.5163C374.285 11.9718 374.895 12.6027 375.343 13.4092C375.781 14.2157 376 15.117 376 16.1133ZM374.728 16.1133C374.728 15.3827 374.561 14.728 374.228 14.1493C373.894 13.561 373.437 13.1008 372.856 12.7688C372.265 12.4272 371.607 12.2564 370.883 12.2564C370.159 12.2564 369.506 12.4272 368.925 12.7688C368.335 13.1008 367.872 13.561 367.539 14.1493C367.205 14.728 367.039 15.3827 367.039 16.1133C367.039 16.8439 367.205 17.508 367.539 18.1058C367.872 18.694 368.335 19.1589 368.925 19.5005C369.506 19.8326 370.159 19.9986 370.883 19.9986C371.607 19.9986 372.265 19.8326 372.856 19.5005C373.437 19.1589 373.894 18.694 374.228 18.1058C374.561 17.508 374.728 16.8439 374.728 16.1133Z" fill="black"/>
<path d="M367.124 2.01423V7.13776L375.886 7.12353V8.5325H365.881V2L367.124 2.01423Z" fill="black"/>
<path d="M25.7592 29.6751H14.1466L11.9313 35.0121H6L17.148 10.106H22.865L34.0487 35.0121H27.9745L25.7592 29.6751ZM23.9369 25.2987L19.9708 15.7633L16.0046 25.2987H23.9369Z" stroke="black" stroke-width="2" mask="url(#path-1-outside-1_26_63)"/>
<path d="M48.192 10.106C50.4073 10.106 52.3248 10.4737 53.9446 11.209C55.5883 11.9443 56.8508 12.988 57.7321 14.3401C58.6135 15.6921 59.0542 17.2932 59.0542 19.1434C59.0542 20.9698 58.6135 22.5709 57.7321 23.9467C56.8508 25.2987 55.5883 26.3424 53.9446 27.0777C52.3248 27.7893 50.4073 28.1451 48.192 28.1451H43.1539V35.0121H37.3655V10.106H48.192ZM47.8704 23.4486C49.6093 23.4486 50.9313 23.0809 51.8365 22.3456C52.7417 21.5865 53.1943 20.5191 53.1943 19.1434C53.1943 17.7439 52.7417 16.6765 51.8365 15.9412C50.9313 15.1821 49.6093 14.8026 47.8704 14.8026H43.1539V23.4486H47.8704Z" stroke="black" stroke-width="2" mask="url(#path-1-outside-1_26_63)"/>
<path d="M66.8164 10.106L71.9974 17.649L77.1783 10.106H83.9672L75.6419 22.0254L84.6461 35.0121H77.8215L71.9974 26.7575L66.2447 35.0121H59.563L68.4957 22.2744L60.1347 10.106H66.8164Z" stroke="black" stroke-width="2" mask="url(#path-1-outside-1_26_63)"/>
<path d="M87.298 10.106H93.0507V26.3305L104.985 10.106H110.416V35.0121H104.699V18.8231L92.7648 35.0121H87.298V10.106Z" stroke="black" stroke-width="2" mask="url(#path-1-outside-1_26_63)"/>
<path d="M135.759 14.8026H127.756V35.0121H122.039V14.8026H114.071V10.106H135.759V14.8026Z" stroke="black" stroke-width="2" mask="url(#path-1-outside-1_26_63)"/>
<path d="M158.76 30.3867V35.0121H139.394V10.106H158.295V14.7314H145.146V20.1396H156.759V24.6227H145.146V30.3867H158.76Z" stroke="black" stroke-width="2" mask="url(#path-1-outside-1_26_63)"/>
<path d="M173.118 24.9785H169.117V35.0121H163.364V10.106H169.117V20.1752H173.261L179.836 10.106H185.946L177.763 22.1321L186.196 35.0121H179.621L173.118 24.9785Z" stroke="black" stroke-width="2" mask="url(#path-1-outside-1_26_63)"/>
<path d="M207.744 14.8026H199.741V35.0121H194.024V14.8026H186.056V10.106H207.744V14.8026Z" stroke="black" stroke-width="2" mask="url(#path-1-outside-1_26_63)"/>
<path d="M232.879 10.106L222.231 29.8174C221.207 31.715 219.968 33.1501 218.515 34.1226C217.086 35.0951 215.526 35.5814 213.835 35.5814C212.524 35.5814 211.167 35.2967 209.761 34.7274L211.155 30.3511C212.155 30.6594 212.989 30.8136 213.656 30.8136C214.371 30.8136 215.014 30.6476 215.585 30.3155C216.157 29.9597 216.681 29.4141 217.158 28.6788L217.372 28.3942L207.51 10.106H213.692L220.338 23.4841L227.198 10.106H232.879Z" stroke="black" stroke-width="2" mask="url(#path-1-outside-1_26_63)"/>
<path d="M246.456 10.106C248.672 10.106 250.589 10.4737 252.209 11.209C253.853 11.9443 255.115 12.988 255.996 14.3401C256.878 15.6921 257.318 17.2932 257.318 19.1434C257.318 20.9698 256.878 22.5709 255.996 23.9467C255.115 25.2987 253.853 26.3424 252.209 27.0777C250.589 27.7893 248.672 28.1451 246.456 28.1451H241.418V35.0121H235.63V10.106H246.456ZM246.135 23.4486C247.874 23.4486 249.196 23.0809 250.101 22.3456C251.006 21.5865 251.459 20.5191 251.459 19.1434C251.459 17.7439 251.006 16.6765 250.101 15.9412C249.196 15.1821 247.874 14.8026 246.135 14.8026H241.418V23.4486H246.135Z" stroke="black" stroke-width="2" mask="url(#path-1-outside-1_26_63)"/>
<path d="M284.076 10.106V35.0121H278.288V24.8006H266.925V35.0121H261.137V10.106H266.925V19.9261H278.288V10.106H284.076Z" stroke="black" stroke-width="2" mask="url(#path-1-outside-1_26_63)"/>
<path d="M302.455 18.2894C305.504 18.2894 307.839 18.9655 309.459 20.3175C311.102 21.6695 311.924 23.6739 311.924 26.3305C311.924 29.1532 311.019 31.3117 309.209 32.8061C307.422 34.2768 304.897 35.0121 301.634 35.0121H290.343V10.106H296.095V18.2894H302.455ZM301.312 30.7425C302.813 30.7425 303.98 30.3748 304.814 29.6395C305.671 28.9042 306.1 27.8368 306.1 26.4373C306.1 23.8518 304.504 22.5591 301.312 22.5591H296.095V30.7425H301.312ZM315.104 10.106H320.857V35.0121H315.104V10.106Z" stroke="black" stroke-width="2" mask="url(#path-1-outside-1_26_63)"/>
<path d="M327.085 10.106H332.838V26.3305L344.772 10.106H350.203V35.0121H344.486V18.8231L332.552 35.0121H327.085V10.106ZM338.626 8.50492C334.053 8.50492 331.742 6.69034 331.695 3.06117H335.661C335.708 4.79274 336.697 5.65852 338.626 5.65852C339.579 5.65852 340.306 5.44504 340.806 5.01808C341.306 4.5674 341.568 3.9151 341.592 3.06117H345.558C345.534 4.84018 344.951 6.19222 343.807 7.1173C342.664 8.04238 340.937 8.50492 338.626 8.50492Z" stroke="black" stroke-width="2" mask="url(#path-1-outside-1_26_63)"/>
<path d="M365.881 42V34.4855H367.096V40.591H369.954V37.4884C369.954 36.3024 370.202 35.4011 370.698 34.7844C371.193 34.1676 371.908 33.8593 372.841 33.8593C373.823 33.8593 374.576 34.1961 375.1 34.8698C375.624 35.5339 375.886 36.4875 375.886 37.7304V42H365.881ZM374.757 37.7873C374.757 36.9713 374.599 36.3499 374.285 35.9229C373.97 35.496 373.508 35.2825 372.899 35.2825C371.688 35.2825 371.083 36.1174 371.083 37.7873V40.591H374.757V37.7873Z" stroke="black" stroke-width="2" mask="url(#path-1-outside-1_26_63)"/>
<path d="M365.881 23.6995H375.886V25.0942H367.124V29.5062L370.054 29.6058C371.436 29.6532 372.556 29.7671 373.413 29.9474C374.271 30.1181 374.919 30.3933 375.357 30.7728C375.786 31.1523 376 31.6647 376 32.3099C376 32.604 375.962 32.9029 375.886 33.2065L374.614 33.1069C374.652 32.9551 374.671 32.8033 374.671 32.6514C374.671 32.2435 374.509 31.9161 374.185 31.6694C373.851 31.4227 373.356 31.2377 372.698 31.1144C372.041 30.991 371.174 30.9104 370.097 30.8724L365.881 30.7159V23.6995Z" stroke="black" stroke-width="2" mask="url(#path-1-outside-1_26_63)"/>
<path d="M376 16.1133C376 17.119 375.781 18.0251 375.343 18.8316C374.895 19.6381 374.28 20.2738 373.499 20.7387C372.718 21.1941 371.846 21.4218 370.883 21.4218C369.921 21.4218 369.049 21.1941 368.268 20.7387C367.487 20.2738 366.877 19.6381 366.438 18.8316C365.991 18.0251 365.767 17.119 365.767 16.1133C365.767 15.117 365.991 14.2157 366.438 13.4092C366.877 12.6027 367.487 11.9718 368.268 11.5163C369.04 11.0609 369.911 10.8332 370.883 10.8332C371.855 10.8332 372.732 11.0609 373.513 11.5163C374.285 11.9718 374.895 12.6027 375.343 13.4092C375.781 14.2157 376 15.117 376 16.1133ZM374.728 16.1133C374.728 15.3827 374.561 14.728 374.228 14.1493C373.894 13.561 373.437 13.1008 372.856 12.7688C372.265 12.4272 371.607 12.2564 370.883 12.2564C370.159 12.2564 369.506 12.4272 368.925 12.7688C368.335 13.1008 367.872 13.561 367.539 14.1493C367.205 14.728 367.039 15.3827 367.039 16.1133C367.039 16.8439 367.205 17.508 367.539 18.1058C367.872 18.694 368.335 19.1589 368.925 19.5005C369.506 19.8326 370.159 19.9986 370.883 19.9986C371.607 19.9986 372.265 19.8326 372.856 19.5005C373.437 19.1589 373.894 18.694 374.228 18.1058C374.561 17.508 374.728 16.8439 374.728 16.1133Z" stroke="black" stroke-width="2" mask="url(#path-1-outside-1_26_63)"/>
<path d="M367.124 2.01423V7.13776L375.886 7.12353V8.5325H365.881V2L367.124 2.01423Z" stroke="black" stroke-width="2" mask="url(#path-1-outside-1_26_63)"/>
</g>
<defs>
<filter id="filter0_d_26_63" x="0.457031" y="0.988525" width="380.543" height="50.0115" filterUnits="userSpaceOnUse" color-interpolation-filters="sRGB">
<feFlood flood-opacity="0" result="BackgroundImageFix"/>
<feColorMatrix in="SourceAlpha" type="matrix" values="0 0 0 0 0 0 0 0 0 0 0 0 0 0 0 0 0 0 127 0" result="hardAlpha"/>
<feOffset dy="4"/>
<feGaussianBlur stdDeviation="2"/>
<feComposite in2="hardAlpha" operator="out"/>
<feColorMatrix type="matrix" values="0 0 0 0 0 0 0 0 0 0 0 0 0 0 0 0 0 0 0.25 0"/>
<feBlend mode="normal" in2="BackgroundImageFix" result="effect1_dropShadow_26_63"/>
<feBlend mode="normal" in="SourceGraphic" in2="effect1_dropShadow_26_63" result="shape"/>
</filter>
</defs>
</svg>
